<?xml version="1.0" encoding="utf-8"?>
<!-- Generator: Adobe Illustrator 16.0.4, SVG Export Plug-In . SVG Version: 6.00 Build 0)  -->
<!DOCTYPE svg PUBLIC "-//W3C//DTD SVG 1.1//EN" "http://www.w3.org/Graphics/SVG/1.1/DTD/svg11.dtd">
<svg version="1.1" id="Layer_1" xmlns="http://www.w3.org/2000/svg" xmlns:xlink="http://www.w3.org/1999/xlink" x="0px" y="0px"
	 width="140.984px" height="88.518px" viewBox="0 0 140.984 88.518" enable-background="new 0 0 140.984 88.518"
	 xml:space="preserve">
<path fill="#86754D" d="M52.413,46.315c0,0.007,0,0.017,0,0.021l-0.438-0.021H52.413L52.413,46.315z M59.696,46.315v0.661h-1.72
	h-2.409v-0.661H59.696L59.696,46.315z M69.227,46.315v0.661h-4.097v-0.661H69.227L69.227,46.315z M70.868,46.315v0.526l-1.083,0.135
	v-0.661H70.868L70.868,46.315z M73.92,46.315v0.146l-1.083,0.135v-0.28L73.92,46.315L73.92,46.315z M77.238,46.315
	c0,0.016,0,0.028,0,0.042l-2.775,0.088v-0.13H77.238L77.238,46.315z M56.804,48.119v-0.542h11.188v0.542H56.804L56.804,48.119z
	 M55.015,49.201V48.66h14.769v0.541H55.015L55.015,49.201z"/>
<path fill="#86754D" d="M50.555,43.43v2.814L49.714,46.2V44.07c0,0-0.043-0.564-0.584-0.562c-0.646,0.005-0.707,0.553-0.707,0.553
	l0.005,2.072l-0.938-0.048v-2.021c0,0-0.063-0.544-0.544-0.538c-0.558,0.01-0.634,0.53-0.634,0.53l0.003,1.968l-0.886-0.045v-1.925
	c0,0-0.073-0.512-0.515-0.512c-0.472,0-0.537,0.506-0.537,0.506l0.003,1.877l-0.82-0.042v-1.836c0,0-0.052-0.493-0.431-0.491
	c-0.434,0.002-0.478,0.485-0.478,0.485v1.796l-0.854-0.043V43.43H50.555L50.555,43.43z M55.024,43.43l0.001,0.76
	c-0.175-0.433-0.464-0.726-0.948-0.721c-1.179,0.011-1.646,1.011-1.663,2.845l-0.438,0.001l-0.886-0.044V43.43H55.024L55.024,43.43z
	 M56.212,43.43v0.393h1.121V43.43h2.145l0.22,0.393v2.492h-4.129V43.43H56.212L56.212,43.43z M67.479,43.43v0.393H68.6V43.43h0.626
	v2.885H65.13v-2.492l0.223-0.393H67.479L67.479,43.43z M70.868,43.43v2.885h-1.083V43.43H70.868L70.868,43.43z M73.92,43.43v2.885
	h-1.083V43.43H73.92L73.92,43.43z M78.201,43.43c-0.877,0.513-0.96,1.833-0.964,2.885h-2.775V43.43H78.201L78.201,43.43z
	 M83.563,43.43v2.729L81,46.238c-0.002-1.2-0.043-2.344-0.892-2.808H83.563L83.563,43.43z M85.562,43.43
	c-0.245,0.155-0.308,0.357-0.308,0.357v2.322l-1.15,0.035V43.43H85.562L85.562,43.43z M89.101,43.43
	c-0.229,0.151-0.275,0.362-0.275,0.362v2.206l-1.42,0.045l0.01-2.245c0,0-0.062-0.208-0.349-0.367L89.101,43.43L89.101,43.43z
	 M92.472,43.43c-0.266,0.139-0.338,0.359-0.338,0.359v2.104L90.8,45.937l0.004-2.146c0,0-0.082-0.21-0.396-0.36L92.472,43.43
	L92.472,43.43z M95.492,43.43c-0.245,0.131-0.295,0.362-0.295,0.362v2.004l-1.233,0.039l0.006-2.043c0,0-0.054-0.223-0.367-0.363
	L95.492,43.43L95.492,43.43z M97.921,43.43v2.281l-1.128,0.037v-1.953c0,0-0.066-0.235-0.396-0.366L97.921,43.43L97.921,43.43z
	 M67.35,44.411v1.455h1.381v-1.455H67.35L67.35,44.411z M56.081,44.411v1.455h1.382v-1.455H56.081L56.081,44.411z"/>
<path fill="#86754D" d="M50.555,40.543v2.887h-8.758v-2.887H50.555L50.555,40.543z M51.933,40.543v0.588l0.874-0.05v-0.538h0.501
	v0.508L54.187,41v-0.457h0.834l0.002,1.52l-3.934,0.13v-1.648L51.933,40.543L51.933,40.543z M56.212,40.543v2.887h-0.646v-2.887
	H56.212L56.212,40.543z M59.39,40.543v2.73l0.087,0.155h-2.145v-2.887L59.39,40.543L59.39,40.543z M67.479,40.543v2.887h-2.127
	l0.086-0.155v-2.73L67.479,40.543L67.479,40.543z M69.227,40.543v2.887h-0.626v-2.887H69.227L69.227,40.543z M70.868,40.543v2.887
	h-1.083l-0.001-2.887H70.868L70.868,40.543z M73.92,40.543v2.887h-1.083v-2.887H73.92L73.92,40.543z M77.34,40.543v0.02l1.222,0.051
	v-0.068h1.065v0.116l1.229,0.053v-0.169h0.562v0.19l1.223,0.055v-0.246h0.925v1.394l-9.103-0.296v-1.098L77.34,40.543L77.34,40.543z
	 M85.256,40.543v1.378l2.153,0.058v-1.436h1.415v1.473l2.013,0.054v-1.525h7.084v2.887h-1.521c-0.124-0.052-0.286-0.087-0.498-0.088
	c-0.176-0.002-0.31,0.035-0.407,0.089h-1.892c-0.143-0.064-0.338-0.112-0.604-0.115c-0.229-0.002-0.396,0.046-0.523,0.114
	l-2.062,0.001c-0.163-0.08-0.391-0.142-0.699-0.146c-0.28-0.008-0.476,0.061-0.607,0.146h-2.034
	c-0.171-0.094-0.421-0.171-0.781-0.175c-0.335-0.003-0.565,0.076-0.723,0.175h-1.458v-2.887L85.256,40.543L85.256,40.543z
	 M51.09,43.43v-0.671l3.934-0.11l0.002,0.782L51.09,43.43L51.09,43.43z M74.462,43.43v-1.288l9.103,0.197v1.091H80.11
	c-0.257-0.14-0.585-0.218-1.01-0.218c-0.366,0-0.661,0.079-0.897,0.218H74.462L74.462,43.43z M95.198,40.727v1.461l1.596,0.043
	v-1.427L95.198,40.727L95.198,40.727z M92.135,40.579v1.525l1.867,0.051V40.67L92.135,40.579L92.135,40.579z M49.714,42.244v-1.698
	l-1.291,0.093v1.65L49.714,42.244L49.714,42.244z M47.489,42.323v-1.616l-1.199,0.087v1.575L47.489,42.323L47.489,42.323z
	 M45.429,42.397v-1.543l-1.07,0.078v1.504L45.429,42.397L45.429,42.397z M43.56,42.466V40.99l-0.906,0.065v1.443L43.56,42.466
	L43.56,42.466z"/>
<path fill="#86754D" d="M50.555,37.659v1.388l-9.8,1.073l1.583-2.461H50.555L50.555,37.659z M51.929,37.659v0.01l0.084-0.01h3.007
	l0.001,2.885h-0.834v-2.63l-0.879,0.106v2.522h-0.501v-2.461L51.93,38.19l0.003,2.354H51.09v-2.885L51.929,37.659L51.929,37.659z
	 M56.212,37.659v2.885h-0.646v-2.885H56.212L56.212,37.659z M57.977,37.659v0.349l0.913,0.427c0.11-0.263,0.256-0.52,0.438-0.76
	l-0.021-0.016h1.211c-1.006,0.671-1.126,1.938-1.126,2.844v0.041h-2.058v-2.885H57.977L57.977,37.659z M65.505,37.659l-0.104,0.087
	c0.184,0.229,0.334,0.474,0.454,0.718l0.979-0.456v-0.349h0.646v2.885h-2.041v-0.041c0-0.905-0.218-2.173-1.277-2.845L65.505,37.659
	L65.505,37.659z M69.227,37.659v2.885h-0.626v-2.885H69.227L69.227,37.659z M71.422,37.659c-0.247,0.119-0.554,0.396-0.554,0.882
	v2.003h-1.084l-0.001-2.885H71.422L71.422,37.659z M73.92,37.659v2.885h-1.083v-1.188c0-1.106-0.332-1.544-0.729-1.694L73.92,37.659
	L73.92,37.659z M75.552,37.659v2.829l1.227,0.052v-2.881h0.562v2.885h-2.878v-2.885H75.552L75.552,37.659z M79.627,37.659v2.885
	h-1.065l0.005-2.885H79.627L79.627,37.659z M83.563,37.659v2.885h-0.925l0.005-2.668l-1.228-0.098v2.767h-0.562v-2.812l-0.961-0.073
	L83.563,37.659L83.563,37.659z M97.707,37.659l2.096,2.126l-15.697-1.114l-0.001-1.013L97.707,37.659L97.707,37.659z M41.798,40.543
	v-0.152l8.758-0.81v0.962H41.798L41.798,40.543z M84.104,40.543v-1.399l13.815,0.881v0.52h-7.084v-0.028l-2.014-0.097v0.125h-1.414
	V40.35l-2.153-0.103v0.297L84.104,40.543L84.104,40.543z M66.835,38.988l-0.718,0.158c0.066,0.254,0.101,0.494,0.101,0.708v0.321
	h0.617V38.988L66.835,38.988z M57.977,38.988v1.188h0.615v-0.321c0-0.226,0.025-0.467,0.077-0.714L57.977,38.988L57.977,38.988z"/>
<path fill="#86754D" d="M42.339,37.659l0.021-0.031l8.193-1.381v1.413L42.339,37.659L42.339,37.659z M51.09,37.659V35.26
	l3.929-0.723l0.002,3.122h-3.007l0.794-0.104V36.07c-0.485,0.186-0.878,0.667-0.878,1.162v0.428H51.09L51.09,37.659z M55.567,37.659
	v-6.243h2.409v0.444h8.857v-0.444h2.393v6.243H68.6V34.9h-1.121v2.761h-0.646v-1.108l-1.33,1.108H64.16
	c-0.449-0.286-1.049-0.465-1.844-0.465c-0.797,0-1.378,0.18-1.802,0.464l-1.211,0.001l-1.328-1.108v1.108h-0.645V34.9H56.21v2.761
	L55.567,37.659L55.567,37.659z M69.783,37.659l-0.001-2.152l4.138,0.903v1.249h-1.812c-0.14-0.054-0.289-0.071-0.432-0.071
	c-0.06,0-0.149,0.021-0.254,0.072L69.783,37.659L69.783,37.659z M74.462,37.659v-4.167l9.103,1.136v3.031h-3.669l-0.269-0.022v0.022
	h-1.062v-0.105l-1.227-0.096v0.201h-0.562v-0.246l-1.228-0.099v0.344L74.462,37.659L74.462,37.659z M84.104,37.659l-0.003-1.816
	l13.259,1.464l0.349,0.354L84.104,37.659L84.104,37.659z M57.977,32.946v0.877h8.857v-0.877H57.977L57.977,32.946z M67.479,32.946
	v0.877H68.6v-0.877H67.479L67.479,32.946z M56.212,32.946v0.877h1.121v-0.877H56.212L56.212,32.946z M64.184,34.906h-1.259
	l-0.163,1.403c0.304,0.031,0.587,0.092,0.849,0.178L64.184,34.906L64.184,34.906z M61.888,34.906H60.63l0.551,1.522
	c0.267-0.072,0.556-0.118,0.869-0.134L61.888,34.906L61.888,34.906z M59.536,34.906h-1.561l1.812,2.264
	c0.203-0.183,0.436-0.343,0.697-0.478L59.536,34.906L59.536,34.906z M66.835,34.906h-1.56l-0.998,1.875
	c0.247,0.142,0.472,0.304,0.67,0.481L66.835,34.906L66.835,34.906z M71.439,30.854v-2.249l-1.111,0.299v1.949L71.439,30.854
	L71.439,30.854z M73.348,30.854v-2.762L71.98,28.46v2.394H73.348L73.348,30.854z M57.977,30.854v-3.557l9.372,1.589l6.57-2.002
	v6.038l-4.138-2.068l0.003-1.804l-0.999,0.269v1.535h-0.541v-1.39l-0.869,0.232v1.156h-0.541v-1.185l-1.428-0.213v1.396h-0.541
	v-1.479l-1.491-0.224v1.701h-0.543v-1.782l-1.684-0.251v2.034h-0.542V28.74l-1.937-0.287v2.401H57.977L57.977,30.854z M73.92,35.018
	v0.822l-4.138-0.938V33.68L73.92,35.018L73.92,35.018z M73.92,33.441v0.979l-4.138-1.42v-1.504L73.92,33.441L73.92,33.441z
	 M57.977,23.93l4.431,1.211v-1.3l2.46-0.836v2.808l0.541,0.148v-3.146h3.839v2.936l0.538-0.21v-2.594l4.136,0.979v1.139
	l-2.501,2.009l-4.069,1.242l-8.085-1.362l-1.287-1.331L57.977,23.93L57.977,23.93z M69.785,14.595h-4.919l0.727-1.41l1.562-6.766
	h0.992l0.937,6.741L69.785,14.595L69.785,14.595z M63.268,18.981v1.822l0.736-0.288v-1.844L63.268,18.981L63.268,18.981z
	 M71.041,18.698v1.979l1.624,0.437v-1.945L71.041,18.698L71.041,18.698z M62.406,17.334l-1.052-0.545l3.513-1.654h4.919l5.365,1.675
	l-1.23,0.697v5.905l-4.136-1.002v-6.208l4.136,1.304V16.94l-4.135-1.265h-4.919l-2.461,1.14V17.334l2.461-1.116v6.235l-2.461,0.863
	V17.334L62.406,17.334z M66.392,18.311v1.869h1.87v-1.869H66.392L66.392,18.311z M69.246,16.218v6.056h-3.839v-6.056H69.246
	L69.246,16.218z M61.354,16.285l2.2-2.543l2.554-6.973l0.645-0.325l-1.674,6.742l-0.984,1.773L61.354,16.285L61.354,16.285z
	 M65.636,4.302l0.309-0.477c0.268-0.363,0.452-2.187,1.667-2.187c0.004,0,0.072-0.75,0.092-0.997
	c0.067-0.855,0.143-0.855,0.228-0.003l0.081,1c1.722,0.182,1.458,1.632,1.81,2.183c0.185,0.285,0.231,0.4,0.231,0.4l-1.509-0.797
	H66.95L65.636,4.302L65.636,4.302z M66.108,6.417V4.302l0.843-0.581h1.593l1.242,0.635v2.071l-0.539-0.141V5.236
	c0-0.268-0.05-0.582-0.289-0.664c-0.241-0.083-0.414,0.066-0.414,0.443v1.011h-0.396v-1.25c0-0.244-0.088-0.508-0.39-0.508
	c-0.303,0-0.417,0.301-0.417,0.508v1.25H66.95V4.996c0-0.22-0.094-0.504-0.286-0.426c-0.19,0.078-0.163,0.335-0.163,0.593v1.05
	L66.108,6.417L66.108,6.417z M70.391,14.787l-0.781-1.58l-1.009-6.788l1.186,0.304l2.938,6.995l2.429,2.594L70.391,14.787
	L70.391,14.787z M83.036,25.62l0.526,0.131v1.296l0.853,1.161l-0.853-0.183v6.187L74.46,33.01l0.001-6.912l-0.871-0.185l0.871-0.684
	l-0.001-1.688l0.748,0.173c0,0,1.276-2.644,3.807-2.13c0-0.713,0.109-2.809,0.146-3.411c0.044-0.763,0.199-0.773,0.239,0.029
	c0.039,0.781,0.113,3.51,0.113,3.51C82.511,22.596,82.924,25.062,83.036,25.62L83.036,25.62z M80.307,26.767
	c0-0.659-0.203-1.375-1.046-1.57c-0.666-0.153-1.182,0.306-1.182,1.005v5.875l2.22,0.33L80.307,26.767L80.307,26.767z
	 M82.575,32.734v-2.976l-1.258-0.235v3.035L82.575,32.734L82.575,32.734z M81.318,28.863l1.258,0.244v-1.291l-1.258-0.273V28.863
	L81.318,28.863z M77.019,31.918v-3.2l-1.329-0.247v3.257L77.019,31.918L77.019,31.918z M75.689,27.763l1.329,0.26v-1.388
	l-1.329-0.276V27.763L75.689,27.763z M75.552,36.729l1.227,0.107v-1.672c-0.749,0.043-1.227,0.628-1.227,1V36.729L75.552,36.729z
	 M77.34,35.226v1.66l1.228,0.106l0.001-0.597C78.567,35.965,78.066,35.414,77.34,35.226L77.34,35.226z M82.646,36.865
	c0-0.431-0.488-0.979-1.229-1.155v1.529l1.229,0.106L82.646,36.865L82.646,36.865z M79.627,37.083l1.229,0.105v-1.53
	c-0.733,0.06-1.229,0.64-1.229,1.007V37.083L79.627,37.083z M84.104,32.553v-3.146l11.668,2.276l2.84,3.083L84.104,32.553
	L84.104,32.553z M97.359,36.924l-13.229-1.54l-0.023-2.418l13.255,1.953L97.359,36.924L97.359,36.924z M94.494,35.076v0.902
	l1.277,0.149v-0.875L94.494,35.076L94.494,35.076z M91.769,34.695v0.967l1.275,0.148v-0.938L91.769,34.695L91.769,34.695z
	 M88.761,34.274v1.033l1.402,0.165v-1.001L88.761,34.274L88.761,34.274z M85.691,34.947l1.386,0.163V34.04l-1.386-0.194V34.947
	L85.691,34.947z M53.308,36.001v1.491l0.879-0.113v-0.452C54.187,36.5,53.793,36.062,53.308,36.001L53.308,36.001z M52.484,28.018
	l-0.83,0.271v1.227l0.837-0.251L52.484,28.018L52.484,28.018z M55.764,28.277l0.886-0.264v-1.358l-0.884,0.292L55.764,28.277
	L55.764,28.277z M51.654,33.288l0.837-0.187v-3.247l-0.837,0.242V33.288L51.654,33.288z M53.057,32.979l1.959-0.437l0.002,1.585
	l-3.929,0.75v-6.403l-0.534,0.173l0.539-0.881L51.09,26.28l0.307-0.112c0,0,0.499-3.047,2.75-4.034c0,0,0.081-2.729,0.105-3.504
	c0.025-0.795,0.211-0.784,0.24-0.03c0.022,0.6,0.148,2.702,0.148,3.408c2.012-0.604,2.444,2.036,2.444,2.036l0.3-0.112v1.688
	l0.591,0.611l-0.591,0.186l-0.011,4.438h-0.728v-2.199l-0.887,0.258v1.94h-0.736V26.42c0-0.474-0.544-0.696-0.987-0.536
	c-0.561,0.201-0.98,0.74-0.98,1.212L53.057,32.979L53.057,32.979z M50.555,33.028L41.6,35.114l2.688-3.383l6.269-1.889
	L50.555,33.028L50.555,33.028z M50.555,35.773l-8.193,1.457l0.014-1.881l8.182-1.817L50.555,35.773L50.555,35.773z M44.216,36.388
	v-0.857l-0.793,0.165v0.84L44.216,36.388L44.216,36.388z M45.935,36.072v-0.896l-0.808,0.167v0.878L45.935,36.072L45.935,36.072z
	 M47.662,35.753v-0.938l-0.888,0.186v0.916L47.662,35.753L47.662,35.753z M49.493,35.416v-0.979l-0.89,0.187v0.958L49.493,35.416
	L49.493,35.416z"/>
<line fill="none" stroke="#86754D" stroke-width="0.5" stroke-miterlimit="3.8637" x1="13.076" y1="77.498" x2="125.746" y2="77.498"/>
<path fill="#23362B" d="M94.082,83.443c0.019-0.643-0.359-1.071-0.977-1.071c-0.571,0-0.979,0.431-1.065,1.071H94.082L94.082,83.443
	z M94.89,83.628c0,0.104-0.009,0.228-0.024,0.378h-2.858c-0.034,1.17,0.449,1.672,1.382,1.672c0.448,0,0.924-0.106,1.273-0.273
	l0.071,0.644c-0.423,0.177-0.934,0.271-1.479,0.271c-1.346,0-2.066-0.702-2.066-2.241c0-1.312,0.713-2.286,1.953-2.286
	C94.372,81.79,94.89,82.625,94.89,83.628L94.89,83.628z M46.826,84.93c0,0.791-0.701,1.39-1.864,1.39
	c-0.323,0-0.649-0.024-0.923-0.077l0.026-0.703c0.271,0.086,0.624,0.147,0.958,0.147c0.58,0,0.977-0.265,0.977-0.669
	c0-0.977-2.03-0.379-2.03-1.918c0-0.738,0.606-1.31,1.75-1.31c0.264,0,0.57,0.035,0.837,0.087l-0.02,0.66
	c-0.271-0.09-0.589-0.143-0.882-0.143c-0.579,0-0.867,0.246-0.867,0.625C44.788,83.979,46.826,83.461,46.826,84.93L46.826,84.93z
	 M50.695,80.629c0,0.281-0.236,0.52-0.526,0.52c-0.291,0-0.527-0.229-0.527-0.52c0-0.281,0.236-0.51,0.527-0.51
	C50.458,80.119,50.695,80.339,50.695,80.629L50.695,80.629z M50.563,86.24h-0.792V81.87h0.792V86.24L50.563,86.24z M57.385,86.24
	h-0.79v-2.821c0-0.616-0.168-0.979-0.746-0.979c-0.724,0-1.24,0.729-1.24,1.697v2.103h-0.792V81.87h0.767
	c0,0.255-0.021,0.658-0.071,0.914c0.272-0.6,0.811-1.004,1.557-1.004c1.004,0,1.319,0.625,1.319,1.398L57.385,86.24L57.385,86.24z
	 M64.402,86.873c0,0.924-0.947,1.645-2.322,1.645c-1.124,0-1.836-0.448-1.836-1.283c0-0.52,0.334-0.933,0.72-1.135
	c-0.264-0.123-0.431-0.352-0.431-0.643c0-0.31,0.187-0.589,0.492-0.729c-0.431-0.247-0.644-0.692-0.644-1.249
	c0-0.924,0.695-1.688,1.918-1.688c0.256,0,0.458,0.024,0.686,0.079h1.486v0.625h-0.738c0.229,0.175,0.37,0.48,0.37,0.853
	c0,0.94-0.648,1.627-1.9,1.627c-0.184,0-0.402-0.024-0.555-0.053c-0.191,0.079-0.279,0.22-0.279,0.358
	c0,0.247,0.221,0.344,0.748,0.344h0.808C63.874,85.623,64.402,86.082,64.402,86.873L64.402,86.873z M63.32,83.399
	c0-0.642-0.387-1.021-1.056-1.021c-0.693,0-1.106,0.432-1.106,1.021c0,0.65,0.396,1.002,1.081,1.002
	C62.897,84.401,63.32,84.041,63.32,83.399L63.32,83.399z M63.62,86.97c0-0.422-0.301-0.687-0.916-0.687h-1.115
	c-0.344,0.178-0.562,0.467-0.562,0.801c0,0.52,0.49,0.801,1.178,0.801C63.1,87.885,63.62,87.506,63.62,86.97L63.62,86.97z
	 M70.354,86.24h-0.767c0-0.309,0-0.625,0.044-0.869c-0.229,0.535-0.78,0.948-1.505,0.948c-0.72,0-1.214-0.388-1.214-1.082
	c0-0.958,0.979-1.563,2.631-1.563v-0.325c0-0.607-0.236-0.933-0.959-0.933c-0.413,0-0.939,0.133-1.317,0.359l-0.079-0.678
	c0.42-0.176,0.95-0.316,1.528-0.316c1.26,0,1.619,0.591,1.619,1.459v1.742C70.336,85.396,70.344,85.861,70.354,86.24L70.354,86.24z
	 M69.544,84.305v-0.079c-1.521,0-1.855,0.466-1.855,0.862c0,0.369,0.265,0.605,0.669,0.605
	C69.069,85.695,69.544,84.991,69.544,84.305L69.544,84.305z M77.379,83.848c0,1.557-0.837,2.445-2.252,2.445
	c-0.271,0-0.482-0.01-0.738-0.055v2.174h-0.791v-6.543h0.766c0,0.244-0.019,0.642-0.071,0.889c0.267-0.599,0.792-0.968,1.486-0.968
	C76.797,81.79,77.379,82.511,77.379,83.848L77.379,83.848z M76.553,83.918c0-0.941-0.31-1.479-0.969-1.479
	c-0.792,0-1.196,0.923-1.196,1.688v1.44c0.229,0.07,0.476,0.106,0.772,0.106C75.997,85.678,76.553,85.176,76.553,83.918
	L76.553,83.918z M83.953,83.979c0,1.319-0.846,2.34-2.139,2.34c-1.187,0-1.961-0.687-1.961-2.226c0-1.283,0.81-2.304,2.128-2.304
	C83.101,81.79,83.953,82.406,83.953,83.979L83.953,83.979z M83.126,84.023c0-0.993-0.404-1.574-1.214-1.574
	c-0.634,0-1.229,0.484-1.229,1.564c0,1.057,0.43,1.637,1.229,1.637C82.564,85.65,83.126,85.141,83.126,84.023L83.126,84.023z
	 M89.001,81.79l-0.035,0.771c-0.924-0.157-1.363,0.521-1.363,1.917v1.76h-0.791v-4.369h0.765c0,0.271-0.026,0.678-0.096,1.035
	C87.682,82.3,88.129,81.693,89.001,81.79L89.001,81.79z"/>
<path fill="#23362B" d="M10.951,62.548c-0.904,0.198-1.895,0.271-2.748,0.271c-0.899,0-1.778-0.087-2.606-0.271H10.951
	L10.951,62.548z M21.917,62.548c-0.494,0.128-1.027,0.196-1.598,0.196c-0.597,0-1.139-0.07-1.628-0.196H21.917L21.917,62.548z
	 M34.261,62.548c-0.495,0.128-1.028,0.196-1.598,0.196c-0.598,0-1.14-0.07-1.628-0.196H34.261L34.261,62.548z M39.873,62.548
	c-0.211,0.005-0.417,0.011-0.594,0.011c-0.049,0-0.092-0.004-0.126-0.01L39.873,62.548L39.873,62.548z M45.307,62.548
	c-0.45,0.081-0.953,0.13-1.514,0.13c-0.697,0-1.514-0.083-2.164-0.129L45.307,62.548L45.307,62.548z M54.399,62.548
	c-0.082,0.145-0.144,0.196-0.232,0.196c-0.085,0-0.146-0.062-0.203-0.198L54.399,62.548L54.399,62.548z M60.685,62.548
	c-0.064,0.141-0.131,0.196-0.231,0.196c-0.077,0-0.138-0.057-0.215-0.196H60.685L60.685,62.548z M71.782,62.548
	c-0.493,0.128-1.027,0.196-1.597,0.196c-0.597,0-1.139-0.07-1.628-0.196H71.782L71.782,62.548z M84.125,62.548
	c-0.492,0.128-1.025,0.196-1.596,0.196c-0.597,0-1.139-0.07-1.628-0.196H84.125L84.125,62.548z M89.873,62.548
	c-0.21,0.005-0.419,0.011-0.594,0.011c-0.049,0-0.092-0.004-0.127-0.01L89.873,62.548L89.873,62.548z M95.307,62.548
	c-0.451,0.081-0.955,0.13-1.514,0.13c-0.697,0-1.517-0.083-2.165-0.129L95.307,62.548L95.307,62.548z M102.397,62.548
	c-0.396,0.012-0.819,0.021-1.151,0.021c-0.087,0-0.159-0.008-0.215-0.021H102.397L102.397,62.548z M106.427,62.548
	c-0.054,0.016-0.12,0.021-0.192,0.021c-0.549,0-1.088-0.012-1.552-0.022L106.427,62.548L106.427,62.548z M109.607,62.548
	c-0.213,0.005-0.443,0.011-0.671,0.011c-0.056,0-0.103-0.004-0.138-0.01L109.607,62.548L109.607,62.548z M112.036,62.548
	c-0.032,0.007-0.073,0.011-0.117,0.011c-0.143,0-0.295-0.006-0.457-0.011H112.036L112.036,62.548z M119.39,62.548
	c-0.091,0.007-0.206,0.011-0.36,0.011c-0.359,0-0.996,0-1.741-0.013L119.39,62.548L119.39,62.548z M120.885,62.548
	c-0.209,0.005-0.417,0.011-0.592,0.011c-0.048,0-0.091-0.004-0.127-0.01L120.885,62.548L120.885,62.548z M124.002,62.548
	c-0.035,0.007-0.077,0.011-0.127,0.011c-0.253,0-0.529-0.006-0.793-0.011H124.002L124.002,62.548z M130.211,62.548
	c-0.036,0.007-0.08,0.011-0.13,0.011h-1.266c-0.164,0-0.309-0.004-0.437-0.011H130.211L130.211,62.548z M131.475,62.548
	c-0.213,0.005-0.421,0.011-0.597,0.011c-0.048,0-0.089-0.004-0.126-0.01L131.475,62.548L131.475,62.548z M134.587,62.548
	c-0.031,0.007-0.069,0.011-0.109,0.011c-0.246,0-0.501-0.006-0.744-0.011H134.587L134.587,62.548z M140.985,62.548
	c-0.044,0.007-0.101,0.011-0.172,0.011h-1.159c-0.299,0-0.508,0-0.713-0.013L140.985,62.548L140.985,62.548z M57.249,73.127h-0.811
	v-2.734h-3.024v2.734h-0.81V67.19h0.81v2.518h3.024V67.19h0.811V73.127L57.249,73.127z M66.464,70.093
	c0,1.979-1.268,3.122-2.812,3.122c-1.785,0-2.646-1.188-2.646-2.99c0-1.979,1.269-3.121,2.814-3.121
	C65.419,67.104,66.464,68.141,66.464,70.093L66.464,70.093z M65.602,70.189c0-1.521-0.687-2.374-1.871-2.374
	c-0.984,0-1.865,0.8-1.865,2.295c0,1.416,0.6,2.385,1.855,2.385C64.688,72.493,65.602,71.72,65.602,70.189L65.602,70.189z
	 M73.479,67.867h-1.715v5.26h-0.811v-5.26h-1.706V67.19h4.229L73.479,67.867L73.479,67.867z M79.976,73.127h-3.053V67.19h3.053
	v0.669h-2.244v1.881h2.14v0.652h-2.14v2.06h2.244V73.127L79.976,73.127z M86.905,73.127h-2.938V67.19h0.81v5.242h2.128V73.127
	L86.905,73.127z"/>
<path fill="#23362B" d="M5.596,62.548C2.422,61.846,0,59.746,0,55.859c0-2.842,1.475-4.83,3.089-5.807
	c1.703-1.029,3.285-1.154,4.776-1.154c1.225,0,2.787,0.213,3.144,0.305c0.372,0.068,0.994,0.178,1.402,0.193
	c0.213,0.02,0.248,0.09,0.248,0.213c0,0.195-0.124,0.692-0.124,2.896c0,0.283-0.056,0.372-0.196,0.372
	c-0.123,0-0.158-0.089-0.177-0.23c-0.055-0.407-0.143-0.977-0.604-1.474c-0.531-0.568-1.953-1.385-3.958-1.385
	c-0.979,0-2.272,0.069-3.518,1.101c-0.994,0.834-1.634,2.166-1.634,4.351c0,3.816,2.433,6.678,6.181,6.678
	c0.46,0,1.081,0,1.51-0.195c0.266-0.124,0.336-0.354,0.336-0.657v-1.669c0-0.887,0-1.562-0.019-2.096
	c-0.019-0.604-0.178-0.887-0.764-1.011c-0.144-0.036-0.443-0.056-0.692-0.056c-0.16,0-0.267-0.034-0.267-0.143
	c0-0.141,0.124-0.178,0.373-0.178c0.925,0,2.041,0.054,2.575,0.054c0.551,0,1.489-0.054,2.074-0.054c0.23,0,0.357,0.036,0.357,0.178
	c0,0.105-0.107,0.143-0.232,0.143c-0.142,0-0.265,0.02-0.479,0.056c-0.479,0.089-0.656,0.39-0.675,1.011
	c-0.019,0.533-0.019,1.244-0.019,2.132v1.952c0,0.479-0.019,0.516-0.231,0.64c-0.44,0.231-0.97,0.402-1.528,0.525L5.596,62.548
	L5.596,62.548z M18.692,62.548c-2.639-0.688-3.736-3.034-3.736-5.024c0-2.274,1.504-5.219,5.498-5.219
	c3.316,0,5.381,1.93,5.381,4.98c0,2.534-1.476,4.631-3.917,5.264L18.692,62.548L18.692,62.548z M31.036,62.548
	c-2.64-0.688-3.739-3.034-3.739-5.024c0-2.274,1.505-5.219,5.5-5.219c3.316,0,5.38,1.93,5.38,4.98c0,2.534-1.475,4.631-3.915,5.264
	L31.036,62.548L31.036,62.548z M39.154,62.548c-0.092-0.019-0.141-0.056-0.141-0.123c0-0.066,0.054-0.106,0.214-0.106
	c0.198,0,0.357-0.025,0.479-0.054c0.268-0.054,0.332-0.347,0.386-0.733c0.066-0.559,0.066-1.608,0.066-2.835v-2.344
	c0-2.022,0-2.396-0.026-2.823c-0.026-0.451-0.135-0.666-0.571-0.759c-0.106-0.025-0.333-0.04-0.521-0.04
	c-0.146,0-0.226-0.025-0.226-0.121c0-0.093,0.091-0.12,0.292-0.12c0.706,0,1.545,0.041,1.918,0.041c0.412,0,1.25-0.041,2.052-0.041
	c1.663,0,3.889,0,5.339,1.521c0.667,0.691,1.292,1.798,1.292,3.382c0,1.678-0.705,2.957-1.451,3.715
	c-0.475,0.484-1.41,1.16-2.948,1.44l-3.678,0.002c-0.255-0.02-0.483-0.03-0.671-0.03c-0.207,0-0.651,0.021-1.086,0.03L39.154,62.548
	L39.154,62.548z M53.963,62.548c-0.032-0.077-0.064-0.175-0.104-0.296l-2.823-8.456c-0.158-0.493-0.306-0.813-0.491-0.946
	c-0.146-0.094-0.413-0.119-0.531-0.119c-0.135,0-0.215-0.014-0.215-0.121c0-0.093,0.106-0.12,0.294-0.12
	c0.691,0,1.425,0.041,1.546,0.041c0.118,0,0.703-0.041,1.479-0.041c0.188,0,0.277,0.041,0.277,0.12c0,0.107-0.104,0.121-0.238,0.121
	c-0.105,0-0.239,0-0.334,0.055c-0.117,0.053-0.146,0.146-0.146,0.293c0,0.174,0.134,0.627,0.294,1.226
	c0.227,0.879,1.464,4.913,1.702,5.659h0.041l2.584-6.938c0.146-0.373,0.226-0.479,0.332-0.479c0.146,0,0.214,0.2,0.388,0.626
	l2.771,6.699h0.039c0.239-0.895,1.307-4.408,1.771-5.968c0.093-0.307,0.134-0.586,0.134-0.771c0-0.212-0.12-0.398-0.642-0.398
	c-0.133,0-0.228-0.041-0.228-0.121c0-0.093,0.108-0.118,0.308-0.118c0.707,0,1.267,0.04,1.387,0.04c0.094,0,0.664-0.04,1.104-0.04
	c0.146,0,0.237,0.025,0.237,0.106c0,0.092-0.065,0.133-0.187,0.133c-0.133,0-0.319,0.015-0.465,0.066
	c-0.318,0.12-0.468,0.652-0.746,1.412c-0.613,1.678-2.01,5.912-2.664,7.908c-0.061,0.19-0.105,0.332-0.152,0.431h-0.446
	c-0.054-0.104-0.114-0.251-0.197-0.456l-2.771-6.672c-0.281,0.68-2.053,5.393-2.624,6.619c-0.109,0.232-0.185,0.396-0.247,0.507
	L53.963,62.548L53.963,62.548z M68.559,62.548c-2.639-0.688-3.738-3.034-3.738-5.024c0-2.274,1.506-5.219,5.5-5.219
	c3.315,0,5.38,1.93,5.38,4.98c0,2.534-1.475,4.631-3.917,5.264L68.559,62.548L68.559,62.548z M80.902,62.548
	c-2.64-0.688-3.738-3.034-3.738-5.024c0-2.274,1.506-5.219,5.5-5.219c3.315,0,5.379,1.93,5.379,4.98
	c0,2.534-1.476,4.631-3.917,5.264L80.902,62.548L80.902,62.548z M89.153,62.548c-0.091-0.019-0.14-0.056-0.14-0.123
	c0-0.066,0.053-0.106,0.213-0.106c0.199,0,0.358-0.025,0.479-0.054c0.265-0.054,0.331-0.347,0.385-0.733
	c0.066-0.559,0.066-1.608,0.066-2.835v-2.344c0-2.022,0-2.396-0.026-2.823c-0.026-0.451-0.134-0.666-0.572-0.759
	c-0.105-0.025-0.332-0.04-0.52-0.04c-0.146,0-0.228-0.025-0.228-0.121c0-0.093,0.093-0.12,0.293-0.12
	c0.706,0,1.545,0.041,1.917,0.041c0.412,0,1.252-0.041,2.053-0.041c1.663,0,3.888,0,5.339,1.521
	c0.667,0.691,1.292,1.798,1.292,3.382c0,1.678-0.706,2.957-1.451,3.715c-0.475,0.484-1.409,1.16-2.947,1.44l-3.679,0.002
	c-0.254-0.02-0.482-0.03-0.671-0.03c-0.205,0-0.651,0.021-1.085,0.03L89.153,62.548L89.153,62.548z M101.031,62.548
	c-0.094-0.027-0.142-0.077-0.142-0.155c0-0.088,0.07-0.141,0.284-0.141c0.267,0,0.479-0.036,0.639-0.071
	c0.354-0.071,0.443-0.462,0.516-0.978c0.089-0.745,0.089-2.148,0.089-3.781v-3.125c0-2.698,0-3.195-0.035-3.767
	c-0.034-0.603-0.178-0.888-0.763-1.011c-0.144-0.035-0.443-0.055-0.693-0.055c-0.194,0-0.301-0.035-0.301-0.159
	s0.124-0.159,0.392-0.159c0.94,0,2.061,0.055,2.556,0.055c0.729,0,1.759-0.055,2.575-0.055c2.219,0,3.021,0.745,3.302,1.014
	c0.393,0.37,0.89,1.172,0.89,2.111c0,2.521-1.849,4.295-4.367,4.295c-0.091,0-0.284,0-0.374-0.016
	c-0.088-0.02-0.213-0.036-0.213-0.16c0-0.143,0.125-0.195,0.496-0.195c0.994,0,2.381-1.117,2.381-2.93
	c0-0.586-0.055-1.777-1.049-2.664c-0.64-0.586-1.366-0.69-1.774-0.69c-0.267,0-0.53,0.019-0.69,0.069
	c-0.091,0.035-0.144,0.145-0.144,0.337v7.104c0,1.633,0,3.036,0.089,3.8c0.055,0.497,0.159,0.888,0.691,0.959
	c0.249,0.035,0.64,0.071,0.905,0.071c0.194,0,0.283,0.053,0.283,0.141c0,0.078-0.056,0.128-0.145,0.155h-1.744
	c-0.524-0.015-0.956-0.03-1.201-0.03c-0.217,0-0.634,0.018-1.084,0.029L101.031,62.548L101.031,62.548z M108.8,62.548
	c-0.078-0.015-0.116-0.05-0.116-0.123c0-0.08,0.053-0.106,0.158-0.106c0.118,0,0.307-0.014,0.412-0.025
	c0.613-0.08,0.867-0.532,1.134-1.197l3.342-8.363c0.16-0.387,0.24-0.532,0.373-0.532c0.121,0,0.2,0.119,0.333,0.427
	c0.318,0.73,2.448,6.166,3.302,8.188c0.508,1.199,0.895,1.386,1.173,1.452c0.199,0.04,0.4,0.054,0.562,0.054
	c0.105,0,0.174,0.015,0.174,0.106c0,0.073-0.059,0.108-0.253,0.124l-2.104-0.001c-0.248-0.005-0.51-0.011-0.773-0.019
	c-0.24-0.014-0.398-0.014-0.398-0.104c0-0.08,0.053-0.106,0.186-0.12c0.095-0.027,0.188-0.146,0.119-0.307l-1.062-2.822
	c-0.026-0.066-0.066-0.094-0.134-0.094h-2.971c-0.065,0-0.094,0.025-0.121,0.105l-0.718,1.904c-0.134,0.332-0.2,0.651-0.2,0.812
	c0,0.239,0.12,0.413,0.533,0.413h0.198c0.159,0,0.199,0.026,0.199,0.106c0,0.073-0.037,0.108-0.106,0.124l-0.574-0.001
	c-0.328-0.012-0.678-0.03-0.956-0.03c-0.099,0-0.461,0.021-0.897,0.03H108.8L108.8,62.548z M120.166,62.548
	c-0.091-0.019-0.141-0.056-0.141-0.123c0-0.066,0.054-0.106,0.215-0.106c0.198,0,0.358-0.025,0.479-0.054
	c0.267-0.054,0.332-0.347,0.386-0.733c0.065-0.559,0.065-1.608,0.065-2.835v-2.344c0-2.022,0-2.396-0.025-2.823
	c-0.025-0.451-0.134-0.666-0.572-0.759c-0.105-0.025-0.332-0.04-0.52-0.04c-0.146,0-0.228-0.025-0.228-0.121
	c0-0.093,0.094-0.12,0.293-0.12c0.706,0,1.544,0.041,1.822,0.041c0.455,0,1.467-0.041,1.879-0.041c0.84,0,1.73,0.081,2.45,0.573
	c0.373,0.254,0.904,0.935,0.904,1.824c0,0.986-0.413,1.891-1.757,2.984c1.187,1.489,2.104,2.676,2.891,3.501
	c0.745,0.771,1.29,0.864,1.489,0.903c0.146,0.027,0.268,0.041,0.373,0.041c0.104,0,0.161,0.04,0.161,0.106
	c0,0.073-0.045,0.106-0.124,0.124l-1.83-0.001c-0.458-0.025-0.719-0.1-0.989-0.243c-0.573-0.307-1.077-0.933-1.824-1.957
	c-0.531-0.732-1.146-1.639-1.317-1.838c-0.065-0.08-0.146-0.094-0.239-0.094l-1.157-0.025c-0.066,0-0.104,0.025-0.104,0.105v0.187
	c0,1.238,0,2.29,0.064,2.849c0.04,0.389,0.12,0.682,0.521,0.733c0.198,0.026,0.491,0.054,0.652,0.054
	c0.104,0,0.157,0.04,0.157,0.106s-0.047,0.104-0.14,0.124l-0.92-0.001c-0.542-0.012-1.028-0.03-1.163-0.03
	c-0.172,0-0.604,0.021-1.034,0.03L120.166,62.548L120.166,62.548z M130.753,62.548c-0.093-0.019-0.142-0.056-0.142-0.123
	c0-0.066,0.057-0.106,0.214-0.106c0.199,0,0.359-0.025,0.479-0.054c0.268-0.054,0.334-0.347,0.388-0.733
	c0.065-0.559,0.065-1.608,0.065-2.835v-2.344c0-2.022,0-2.396-0.025-2.823c-0.025-0.451-0.134-0.666-0.572-0.759
	c-0.106-0.025-0.334-0.04-0.521-0.04c-0.146,0-0.228-0.025-0.228-0.121c0-0.093,0.095-0.12,0.293-0.12
	c0.706,0,1.545,0.041,1.863,0.041c0.319,0,1.159-0.041,1.611-0.041c0.188,0,0.279,0.027,0.279,0.12c0,0.096-0.079,0.121-0.188,0.121
	c-0.132,0-0.211,0.015-0.373,0.04c-0.356,0.065-0.464,0.292-0.49,0.759c-0.026,0.428-0.026,0.801-0.026,2.823v0.585h0.065
	c0.451-0.492,2.396-2.476,2.783-2.929c0.372-0.44,0.665-0.772,0.665-0.999c0-0.146-0.054-0.239-0.188-0.267
	c-0.119-0.026-0.173-0.056-0.173-0.136c0-0.093,0.065-0.12,0.213-0.12c0.278,0,1.014,0.041,1.372,0.041
	c0.414,0,1.146-0.041,1.559-0.041c0.133,0,0.227,0.027,0.227,0.12c0,0.096-0.065,0.121-0.198,0.121
	c-0.188,0-0.521,0.055-0.771,0.146c-0.413,0.161-0.867,0.438-1.438,0.999c-0.413,0.398-2.426,2.396-2.878,2.877
	c0.479,0.625,3.091,3.436,3.607,3.928c0.587,0.561,1.188,1.159,1.904,1.438c0.398,0.158,0.666,0.199,0.825,0.199
	c0.094,0,0.174,0.026,0.174,0.106c0,0.066-0.034,0.104-0.147,0.124l-2.044-0.001c-0.066-0.005-0.135-0.011-0.205-0.019
	c-0.719-0.064-1.079-0.357-1.649-0.863c-0.587-0.521-3.211-3.598-3.488-3.982l-0.146-0.199h-0.065v1.212c0,1.227,0,2.276,0.04,2.851
	c0.025,0.373,0.146,0.666,0.479,0.72c0.188,0.026,0.48,0.054,0.653,0.054c0.107,0,0.174,0.04,0.174,0.106
	c0,0.067-0.056,0.104-0.143,0.124l-0.854-0.001c-0.5-0.012-0.952-0.03-1.176-0.03c-0.205,0-0.651,0.021-1.082,0.03H130.753
	L130.753,62.548z M20.882,62.078c0.932,0,3.089-0.453,3.089-4.303c0-2.981-1.719-4.834-3.901-4.834
	c-1.531,0-3.275,0.854-3.275,4.168C16.792,59.881,18.324,62.078,20.882,62.078L20.882,62.078z M33.224,62.078
	c0.932,0,3.088-0.453,3.088-4.303c0-2.981-1.716-4.834-3.899-4.834c-1.532,0-3.276,0.854-3.276,4.168
	C29.134,59.881,30.666,62.078,33.224,62.078L33.224,62.078z M41.823,56.139v1.678c0,1.412,0.015,2.438,0.026,2.69
	c0.013,0.332,0.039,0.865,0.146,1.012c0.174,0.253,0.694,0.533,1.745,0.533c1.358,0,2.264-0.267,3.062-0.958
	c0.854-0.733,1.118-1.945,1.118-3.316c0-1.689-0.706-2.781-1.276-3.329c-1.228-1.173-2.743-1.33-3.784-1.33
	c-0.264,0-0.757,0.038-0.864,0.094c-0.119,0.052-0.158,0.119-0.158,0.266C41.823,53.928,41.823,55.088,41.823,56.139L41.823,56.139z
	 M70.747,62.078c0.933,0,3.09-0.453,3.09-4.303c0-2.981-1.718-4.834-3.903-4.834c-1.528,0-3.273,0.854-3.273,4.168
	C66.658,59.881,68.189,62.078,70.747,62.078L70.747,62.078z M83.09,62.078c0.933,0,3.09-0.453,3.09-4.303
	c0-2.981-1.719-4.834-3.902-4.834c-1.53,0-3.273,0.854-3.273,4.168C79.002,59.881,80.533,62.078,83.09,62.078L83.09,62.078z
	 M91.823,56.139v1.678c0,1.412,0.014,2.438,0.025,2.69c0.014,0.332,0.042,0.865,0.146,1.012c0.173,0.253,0.69,0.533,1.745,0.533
	c1.357,0,2.263-0.267,3.062-0.958c0.851-0.733,1.116-1.945,1.116-3.316c0-1.689-0.705-2.781-1.277-3.329
	c-1.225-1.173-2.742-1.33-3.782-1.33c-0.267,0-0.759,0.038-0.864,0.094c-0.119,0.052-0.16,0.119-0.16,0.266
	C91.823,53.928,91.823,55.088,91.823,56.139L91.823,56.139z M112.517,58.416h2.449c0.066,0,0.08-0.039,0.066-0.08l-1.197-3.289
	c-0.015-0.053-0.026-0.119-0.066-0.119s-0.065,0.066-0.08,0.119l-1.225,3.274C112.45,58.377,112.465,58.416,112.517,58.416
	L112.517,58.416z M122.745,53.355v4.049c0,0.146,0.022,0.199,0.116,0.239c0.28,0.093,0.681,0.134,1.014,0.134
	c0.532,0,0.706-0.054,0.945-0.227c0.4-0.293,0.785-0.905,0.785-1.997c0-1.892-1.252-2.438-2.036-2.438
	c-0.335,0-0.573,0.015-0.708,0.055C122.769,53.196,122.745,53.25,122.745,53.355L122.745,53.355z"/>
</svg>
